# xmcd
#
# Track frame offsets:
#	150
#	15520
#	32272
#	49627
#	73696
#	92211
#	108183
#	124596
#	142507
#	157697
#	175514
#	189149
#	207182
#	228665
#	243890
#	259785
#	278572
#	296936
#	311203
#	328785
#
# Disc length: 4579
#
# Revision: 2
# Processed by: cddbd v1.5.1PL0 Copyright (c) Steve Scherf et al.
# Submitted via: CDmax 1.9
# Normalized: r1:DSETVAR1,TDELIM( - )
#
DISCID=0311e114
DTITLE=Various Artist - Misc Country
DYEAR=1900
DGENRE=Country
TTITLE0=Brad Paisley - Wrapped around her finger
TTITLE1=Diamond Rio - Beautiful Mess
TTITLE2=Joe Diffie - Another World
TTITLE3=Keith Urban - Somebody Like You
TTITLE4=Rascal Flats - I'm Movin On
TTITLE5=Rascal Flats - While You Loved Me
TTITLE6=Rascal Flats - These Days
TTITLE7=Kenney Chesney - I Lost It
TTITLE8=Kenney Chesney - The Good Stuff
TTITLE9=Kenney Chesney - Young
TTITLE10=Trace Adkins - Every Light in the House is On
TTITLE11=Rebecca Lynn Howard - Forgive
TTITLE12=Trace Adkins - I'm Tryin
TTITLE13=Toby Keith - My List
TTITLE14=John Micheal Montgomery - What About Now
TTITLE15=George Strait - Run
TTITLE16=Alan Jackson - Drive
TTITLE17=Keith Worley - Good Day to Run
TTITLE18=George Strait - Carryin Your Love With Me
TTITLE19=SmashMouth - Rock Star
EXTD=
EXTT0=
EXTT1=
EXTT2=
EXTT3=
EXTT4=
EXTT5=
EXTT6=
EXTT7=
EXTT8=
EXTT9=
EXTT10=
EXTT11=
EXTT12=
EXTT13=
EXTT14=
EXTT15=
EXTT16=
EXTT17=
EXTT18=
EXTT19=
PLAYORDER=
